# xmcd
#
# Track frame offsets: 
#        150
#        22401
#        39507
#        54148
#        68582
#        85058
#        107626
#        125801
#        138611
#        159970
#        173150
#        195321
#        213210
#        231782
#        243007
#        261090
#        273281
#
# Disc length: 3928 seconds
#
# Revision: 3
# Processed by: cddbd v1.5.2PL0 Copyright (c) Steve Scherf et al.
# Submitted via: ExactAudioCopy v0.99pb4
#
DISCID=e00f5611
DTITLE=Various Artist - Delmark, 50 Years Of Jazz and Blues (Blues, Disc 1)
DYEAR=2003
DGENRE=Blues
TTITLE0=Zora Young - Learned My Lesson
TTITLE1=Syl Johnson - I Like Your Style
TTITLE2=Junior Wells - Ways Like An Angel
TTITLE3=Speckled Red - Cow Cow Blues
TTITLE4=Frank Morey - Let It Roll
TTITLE5=Otis Rush - I Can't Quit You Baby
TTITLE6=Eddie Burns - Lonely Man Plea
TTITLE7=Little Walter - Rollin' An Tumblin' Part 1
TTITLE8=Willie Kent - I Had A Dream
TTITLE9=Big Joe Williams - Midnight Creep
TTITLE10=Jesse Fortune - Dark Is The Night
TTITLE11=Edith Wilson - Hesitating Blues
TTITLE12=Robert Ward - New Role Soul
TTITLE13=The Moroccos - Bang Goes My Heart
TTITLE14=Lurrie Bell - Got My Eyes On You
TTITLE15=Albert Ammons, Meade Lux Lewis, Pete Johnson - Boogie Woogie 
TTITLE15=Prayer
TTITLE16=Little Milton - Bad Luck
EXTD=
EXTT0=
EXTT1=
EXTT2=
EXTT3=
EXTT4=
EXTT5=
EXTT6=
EXTT7=
EXTT8=
EXTT9=
EXTT10=
EXTT11=
EXTT12=
EXTT13=
EXTT14=
EXTT15=
EXTT16=
PLAYORDER=
